<?xml version="1.0" encoding="UTF-8" standalone="no"?><svg xmlns="http://www.w3.org/2000/svg" xmlns:xlink="http://www.w3.org/1999/xlink" contentStyleType="text/css" height="861px" preserveAspectRatio="none" style="width:2230px;height:861px;background:#FFFFFF;" version="1.1" viewBox="0 0 2230 861" width="2230px" zoomAndPan="magnify"><defs/><g><!--MD5=[c96e66abb9c4dcb540106f9c8e17669a]
class Conector--><g id="elem_Conector"><rect codeLine="2" fill="#F1F1F1" height="113.1875" id="Conector" rx="2.5" ry="2.5" style="stroke:#181818;stroke-width:0.5;" width="375" x="1781" y="165"/><ellipse cx="1932.25" cy="181" fill="#ADD1B2" rx="11" ry="11" style="stroke:#181818;stroke-width:1.0;"/><path d="M1935.2188,186.6406 Q1934.6406,186.9375 1934,187.0781 Q1933.3594,187.2344 1932.6563,187.2344 Q1930.1563,187.2344 1928.8281,185.5938 Q1927.5156,183.9375 1927.5156,180.8125 Q1927.5156,177.6875 1928.8281,176.0313 Q1930.1563,174.375 1932.6563,174.375 Q1933.3594,174.375 1934,174.5313 Q1934.6563,174.6875 1935.2188,174.9844 L1935.2188,177.7031 Q1934.5938,177.125 1934,176.8594 Q1933.4063,176.5781 1932.7813,176.5781 Q1931.4375,176.5781 1930.75,177.6563 Q1930.0625,178.7188 1930.0625,180.8125 Q1930.0625,182.9063 1930.75,183.9844 Q1931.4375,185.0469 1932.7813,185.0469 Q1933.4063,185.0469 1934,184.7813 Q1934.5938,184.5 1935.2188,183.9219 L1935.2188,186.6406 Z " fill="#000000"/><text fill="#000000" font-family="sans-serif" font-size="14" lengthAdjust="spacing" textLength="64" x="1952.75" y="185.8467">Conector</text><line style="stroke:#181818;stroke-width:0.5;" x1="1782" x2="2155" y1="197" y2="197"/><rect fill="none" height="6" style="stroke:#C82930;stroke-width:1.0;" width="6" x="1789" y="207.6484"/><text fill="#000000" font-family="sans-serif" font-size="14" lengthAdjust="spacing" textLength="124" x="1801" y="213.9951">conn: Connection</text><line style="stroke:#181818;stroke-width:0.5;" x1="1782" x2="2155" y1="221.2969" y2="221.2969"/><ellipse cx="1792" cy="234.9453" fill="#84BE84" rx="3" ry="3" style="stroke:#038048;stroke-width:1.0;"/><text fill="#000000" font-family="sans-serif" font-size="14" lengthAdjust="spacing" textLength="136" x="1801" y="238.292">conectar(): boolean</text><ellipse cx="1792" cy="251.2422" fill="#84BE84" rx="3" ry="3" style="stroke:#038048;stroke-width:1.0;"/><text fill="#000000" font-family="sans-serif" font-size="14" lengthAdjust="spacing" textLength="349" x="1801" y="254.5889">prepareStatement(sql: String): PreparedStatement</text><ellipse cx="1792" cy="267.5391" fill="#84BE84" rx="3" ry="3" style="stroke:#038048;stroke-width:1.0;"/><text fill="#000000" font-family="sans-serif" font-size="14" lengthAdjust="spacing" textLength="151" x="1801" y="270.8857">fecharConexao(): void</text></g><!--MD5=[a7d71130ebe7f2cfa0bae65a7929467a]
class UsuarioConexao--><g id="elem_UsuarioConexao"><rect codeLine="9" fill="#F1F1F1" height="308.75" id="UsuarioConexao" rx="2.5" ry="2.5" style="stroke:#181818;stroke-width:0.5;" width="647" x="637" y="355"/><ellipse cx="899.75" cy="371" fill="#ADD1B2" rx="11" ry="11" style="stroke:#181818;stroke-width:1.0;"/><path d="M902.7188,376.6406 Q902.1406,376.9375 901.5,377.0781 Q900.8594,377.2344 900.1563,377.2344 Q897.6563,377.2344 896.3281,375.5938 Q895.0156,373.9375 895.0156,370.8125 Q895.0156,367.6875 896.3281,366.0313 Q897.6563,364.375 900.1563,364.375 Q900.8594,364.375 901.5,364.5313 Q902.1563,364.6875 902.7188,364.9844 L902.7188,367.7031 Q902.0938,367.125 901.5,366.8594 Q900.9063,366.5781 900.2813,366.5781 Q898.9375,366.5781 898.25,367.6563 Q897.5625,368.7188 897.5625,370.8125 Q897.5625,372.9063 898.25,373.9844 Q898.9375,375.0469 900.2813,375.0469 Q900.9063,375.0469 901.5,374.7813 Q902.0938,374.5 902.7188,373.9219 L902.7188,376.6406 Z " fill="#000000"/><text fill="#000000" font-family="sans-serif" font-size="14" lengthAdjust="spacing" textLength="113" x="920.25" y="375.8467">UsuarioConexao</text><line style="stroke:#181818;stroke-width:0.5;" x1="638" x2="1283" y1="387" y2="387"/><rect fill="none" height="6" style="stroke:#C82930;stroke-width:1.0;" width="6" x="645" y="397.6484"/><text fill="#000000" font-family="sans-serif" font-size="14" lengthAdjust="spacing" textLength="89" x="657" y="403.9951">nome: String</text><rect fill="none" height="6" style="stroke:#C82930;stroke-width:1.0;" width="6" x="645" y="413.9453"/><text fill="#000000" font-family="sans-serif" font-size="14" lengthAdjust="spacing" textLength="124" x="657" y="420.292">senhaUser: String</text><rect fill="none" height="6" style="stroke:#C82930;stroke-width:1.0;" width="6" x="645" y="430.2422"/><text fill="#000000" font-family="sans-serif" font-size="14" lengthAdjust="spacing" textLength="113" x="657" y="436.5889">tipo_user: String</text><rect fill="none" height="6" style="stroke:#C82930;stroke-width:1.0;" width="6" x="645" y="446.5391"/><text fill="#000000" font-family="sans-serif" font-size="14" lengthAdjust="spacing" textLength="38" x="657" y="452.8857">id: int</text><line style="stroke:#181818;stroke-width:0.5;" x1="638" x2="1283" y1="460.1875" y2="460.1875"/><ellipse cx="648" cy="473.8359" fill="#84BE84" rx="3" ry="3" style="stroke:#038048;stroke-width:1.0;"/><text fill="#000000" font-family="sans-serif" font-size="14" lengthAdjust="spacing" textLength="123" x="657" y="477.1826">getNome(): String</text><ellipse cx="648" cy="490.1328" fill="#84BE84" rx="3" ry="3" style="stroke:#038048;stroke-width:1.0;"/><text fill="#000000" font-family="sans-serif" font-size="14" lengthAdjust="spacing" textLength="199" x="657" y="493.4795">setNome(nome: String): void</text><ellipse cx="648" cy="506.4297" fill="#84BE84" rx="3" ry="3" style="stroke:#038048;stroke-width:1.0;"/><text fill="#000000" font-family="sans-serif" font-size="14" lengthAdjust="spacing" textLength="158" x="657" y="509.7764">getSenhaUser(): String</text><ellipse cx="648" cy="522.7266" fill="#84BE84" rx="3" ry="3" style="stroke:#038048;stroke-width:1.0;"/><text fill="#000000" font-family="sans-serif" font-size="14" lengthAdjust="spacing" textLength="269" x="657" y="526.0732">setSenhaUser(senhaUser: String): void</text><ellipse cx="648" cy="539.0234" fill="#84BE84" rx="3" ry="3" style="stroke:#038048;stroke-width:1.0;"/><text fill="#000000" font-family="sans-serif" font-size="14" lengthAdjust="spacing" textLength="150" x="657" y="542.3701">getTipo_user(): String</text><ellipse cx="648" cy="555.3203" fill="#84BE84" rx="3" ry="3" style="stroke:#038048;stroke-width:1.0;"/><text fill="#000000" font-family="sans-serif" font-size="14" lengthAdjust="spacing" textLength="250" x="657" y="558.667">setTipo_user(tipo_user: String): void</text><ellipse cx="648" cy="571.6172" fill="#84BE84" rx="3" ry="3" style="stroke:#038048;stroke-width:1.0;"/><text fill="#000000" font-family="sans-serif" font-size="14" lengthAdjust="spacing" textLength="71" x="657" y="574.9639">getId(): int</text><ellipse cx="648" cy="587.9141" fill="#84BE84" rx="3" ry="3" style="stroke:#038048;stroke-width:1.0;"/><text fill="#000000" font-family="sans-serif" font-size="14" lengthAdjust="spacing" textLength="119" x="657" y="591.2607">setId(id: int): void</text><ellipse cx="648" cy="604.2109" fill="#84BE84" rx="3" ry="3" style="stroke:#038048;stroke-width:1.0;"/><text fill="#000000" font-family="sans-serif" font-size="14" lengthAdjust="spacing" textLength="434" x="657" y="607.5576">conectarUsuario(nome: String, senha: String): UsuarioConexao</text><ellipse cx="648" cy="620.5078" fill="#84BE84" rx="3" ry="3" style="stroke:#038048;stroke-width:1.0;"/><text fill="#000000" font-family="sans-serif" font-size="14" lengthAdjust="spacing" textLength="437" x="657" y="623.8545">cadastrarUsuario(nome: String, senha: String): UsuarioConexao</text><ellipse cx="648" cy="636.8047" fill="#84BE84" rx="3" ry="3" style="stroke:#038048;stroke-width:1.0;"/><text fill="#000000" font-family="sans-serif" font-size="14" lengthAdjust="spacing" textLength="621" x="657" y="640.1514">registrarJogo(nomeJogo: String, status: String, data: String, usuario: UsuarioConexao): void</text><ellipse cx="648" cy="653.1016" fill="#84BE84" rx="3" ry="3" style="stroke:#038048;stroke-width:1.0;"/><text fill="#000000" font-family="sans-serif" font-size="14" lengthAdjust="spacing" textLength="497" x="657" y="656.4482">adicionarJogo(jogo: String, genero: String, dataLancamento: String): void</text></g><!--MD5=[f6b453f0676bfe12313e4e2659ff51a9]
class TelaInicial--><g id="elem_TelaInicial"><rect codeLine="32" fill="#F1F1F1" height="96.8906" id="TelaInicial" rx="2.5" ry="2.5" style="stroke:#181818;stroke-width:0.5;" width="269" x="7" y="173"/><ellipse cx="104.25" cy="189" fill="#ADD1B2" rx="11" ry="11" style="stroke:#181818;stroke-width:1.0;"/><path d="M107.2188,194.6406 Q106.6406,194.9375 106,195.0781 Q105.3594,195.2344 104.6563,195.2344 Q102.1563,195.2344 100.8281,193.5938 Q99.5156,191.9375 99.5156,188.8125 Q99.5156,185.6875 100.8281,184.0313 Q102.1563,182.375 104.6563,182.375 Q105.3594,182.375 106,182.5313 Q106.6563,182.6875 107.2188,182.9844 L107.2188,185.7031 Q106.5938,185.125 106,184.8594 Q105.4063,184.5781 104.7813,184.5781 Q103.4375,184.5781 102.75,185.6563 Q102.0625,186.7188 102.0625,188.8125 Q102.0625,190.9063 102.75,191.9844 Q103.4375,193.0469 104.7813,193.0469 Q105.4063,193.0469 106,192.7813 Q106.5938,192.5 107.2188,191.9219 L107.2188,194.6406 Z " fill="#000000"/><text fill="#000000" font-family="sans-serif" font-size="14" lengthAdjust="spacing" textLength="66" x="124.75" y="193.8467">TelaInicial</text><line style="stroke:#181818;stroke-width:0.5;" x1="8" x2="275" y1="205" y2="205"/><rect fill="none" height="6" style="stroke:#C82930;stroke-width:1.0;" width="6" x="15" y="215.6484"/><text fill="#000000" font-family="sans-serif" font-size="14" lengthAdjust="spacing" textLength="188" x="27" y="221.9951">TextFieldUsuario: JTextField</text><rect fill="none" height="6" style="stroke:#C82930;stroke-width:1.0;" width="6" x="15" y="231.9453"/><text fill="#000000" font-family="sans-serif" font-size="14" lengthAdjust="spacing" textLength="180" x="27" y="238.292">TextFieldSenha: JTextField</text><line style="stroke:#181818;stroke-width:0.5;" x1="8" x2="275" y1="245.5938" y2="245.5938"/><ellipse cx="18" cy="259.2422" fill="#84BE84" rx="3" ry="3" style="stroke:#038048;stroke-width:1.0;"/><text fill="#000000" font-family="sans-serif" font-size="14" lengthAdjust="spacing" textLength="243" x="27" y="262.5889">botaoEntrarActionPerformed(): void</text></g><!--MD5=[6ecfd136e78e19e63791479f8166a88d]
class TelaCadastro--><g id="elem_TelaCadastro"><rect codeLine="38" fill="#F1F1F1" height="96.8906" id="TelaCadastro" rx="2.5" ry="2.5" style="stroke:#181818;stroke-width:0.5;" width="294" x="311.5" y="173"/><ellipse cx="408.75" cy="189" fill="#ADD1B2" rx="11" ry="11" style="stroke:#181818;stroke-width:1.0;"/><path d="M411.7188,194.6406 Q411.1406,194.9375 410.5,195.0781 Q409.8594,195.2344 409.1563,195.2344 Q406.6563,195.2344 405.3281,193.5938 Q404.0156,191.9375 404.0156,188.8125 Q404.0156,185.6875 405.3281,184.0313 Q406.6563,182.375 409.1563,182.375 Q409.8594,182.375 410.5,182.5313 Q411.1563,182.6875 411.7188,182.9844 L411.7188,185.7031 Q411.0938,185.125 410.5,184.8594 Q409.9063,184.5781 409.2813,184.5781 Q407.9375,184.5781 407.25,185.6563 Q406.5625,186.7188 406.5625,188.8125 Q406.5625,190.9063 407.25,191.9844 Q407.9375,193.0469 409.2813,193.0469 Q409.9063,193.0469 410.5,192.7813 Q411.0938,192.5 411.7188,191.9219 L411.7188,194.6406 Z " fill="#000000"/><text fill="#000000" font-family="sans-serif" font-size="14" lengthAdjust="spacing" textLength="91" x="429.25" y="193.8467">TelaCadastro</text><line style="stroke:#181818;stroke-width:0.5;" x1="312.5" x2="604.5" y1="205" y2="205"/><rect fill="none" height="6" style="stroke:#C82930;stroke-width:1.0;" width="6" x="319.5" y="215.6484"/><text fill="#000000" font-family="sans-serif" font-size="14" lengthAdjust="spacing" textLength="188" x="331.5" y="221.9951">TextFieldUsuario: JTextField</text><rect fill="none" height="6" style="stroke:#C82930;stroke-width:1.0;" width="6" x="319.5" y="231.9453"/><text fill="#000000" font-family="sans-serif" font-size="14" lengthAdjust="spacing" textLength="180" x="331.5" y="238.292">TextFieldSenha: JTextField</text><line style="stroke:#181818;stroke-width:0.5;" x1="312.5" x2="604.5" y1="245.5938" y2="245.5938"/><ellipse cx="322.5" cy="259.2422" fill="#84BE84" rx="3" ry="3" style="stroke:#038048;stroke-width:1.0;"/><text fill="#000000" font-family="sans-serif" font-size="14" lengthAdjust="spacing" textLength="268" x="331.5" y="262.5889">botaoCadastrarActionPerformed(): void</text></g><!--MD5=[5e2026da4591f9beb5674c41e6826429]
class Telaopcoes--><g id="elem_Telaopcoes"><rect codeLine="44" fill="#F1F1F1" height="96.8906" id="Telaopcoes" rx="2.5" ry="2.5" style="stroke:#181818;stroke-width:0.5;" width="321" x="641" y="173"/><ellipse cx="756.75" cy="189" fill="#ADD1B2" rx="11" ry="11" style="stroke:#181818;stroke-width:1.0;"/><path d="M759.7188,194.6406 Q759.1406,194.9375 758.5,195.0781 Q757.8594,195.2344 757.1563,195.2344 Q754.6563,195.2344 753.3281,193.5938 Q752.0156,191.9375 752.0156,188.8125 Q752.0156,185.6875 753.3281,184.0313 Q754.6563,182.375 757.1563,182.375 Q757.8594,182.375 758.5,182.5313 Q759.1563,182.6875 759.7188,182.9844 L759.7188,185.7031 Q759.0938,185.125 758.5,184.8594 Q757.9063,184.5781 757.2813,184.5781 Q755.9375,184.5781 755.25,185.6563 Q754.5625,186.7188 754.5625,188.8125 Q754.5625,190.9063 755.25,191.9844 Q755.9375,193.0469 757.2813,193.0469 Q757.9063,193.0469 758.5,192.7813 Q759.0938,192.5 759.7188,191.9219 L759.7188,194.6406 Z " fill="#000000"/><text fill="#000000" font-family="sans-serif" font-size="14" lengthAdjust="spacing" textLength="81" x="777.25" y="193.8467">Telaopcoes</text><line style="stroke:#181818;stroke-width:0.5;" x1="642" x2="961" y1="205" y2="205"/><rect fill="none" height="6" style="stroke:#C82930;stroke-width:1.0;" width="6" x="649" y="215.6484"/><text fill="#000000" font-family="sans-serif" font-size="14" lengthAdjust="spacing" textLength="153" x="661" y="221.9951">user: UsuarioConexao</text><line style="stroke:#181818;stroke-width:0.5;" x1="642" x2="961" y1="229.2969" y2="229.2969"/><ellipse cx="652" cy="242.9453" fill="#84BE84" rx="3" ry="3" style="stroke:#038048;stroke-width:1.0;"/><text fill="#000000" font-family="sans-serif" font-size="14" lengthAdjust="spacing" textLength="294" x="661" y="246.292">botaoRegistrarJogoActionPerformed(): void</text><ellipse cx="652" cy="259.2422" fill="#84BE84" rx="3" ry="3" style="stroke:#038048;stroke-width:1.0;"/><text fill="#000000" font-family="sans-serif" font-size="14" lengthAdjust="spacing" textLength="295" x="661" y="262.5889">botaoAdicionarJogoActionPerformed(): void</text></g><!--MD5=[092ab9de4ec1dadf820445ea0c458495]
class TelaRegistroJogo--><g id="elem_TelaRegistroJogo"><rect codeLine="50" fill="#F1F1F1" height="80.5938" id="TelaRegistroJogo" rx="2.5" ry="2.5" style="stroke:#181818;stroke-width:0.5;" width="247" x="997" y="181"/><ellipse cx="1057.75" cy="197" fill="#ADD1B2" rx="11" ry="11" style="stroke:#181818;stroke-width:1.0;"/><path d="M1060.7188,202.6406 Q1060.1406,202.9375 1059.5,203.0781 Q1058.8594,203.2344 1058.1563,203.2344 Q1055.6563,203.2344 1054.3281,201.5938 Q1053.0156,199.9375 1053.0156,196.8125 Q1053.0156,193.6875 1054.3281,192.0313 Q1055.6563,190.375 1058.1563,190.375 Q1058.8594,190.375 1059.5,190.5313 Q1060.1563,190.6875 1060.7188,190.9844 L1060.7188,193.7031 Q1060.0938,193.125 1059.5,192.8594 Q1058.9063,192.5781 1058.2813,192.5781 Q1056.9375,192.5781 1056.25,193.6563 Q1055.5625,194.7188 1055.5625,196.8125 Q1055.5625,198.9063 1056.25,199.9844 Q1056.9375,201.0469 1058.2813,201.0469 Q1058.9063,201.0469 1059.5,200.7813 Q1060.0938,200.5 1060.7188,199.9219 L1060.7188,202.6406 Z " fill="#000000"/><text fill="#000000" font-family="sans-serif" font-size="14" lengthAdjust="spacing" textLength="117" x="1078.25" y="201.8467">TelaRegistroJogo</text><line style="stroke:#181818;stroke-width:0.5;" x1="998" x2="1243" y1="213" y2="213"/><rect fill="none" height="6" style="stroke:#C82930;stroke-width:1.0;" width="6" x="1005" y="223.6484"/><text fill="#000000" font-family="sans-serif" font-size="14" lengthAdjust="spacing" textLength="153" x="1017" y="229.9951">user: UsuarioConexao</text><line style="stroke:#181818;stroke-width:0.5;" x1="998" x2="1243" y1="237.2969" y2="237.2969"/><ellipse cx="1008" cy="250.9453" fill="#84BE84" rx="3" ry="3" style="stroke:#038048;stroke-width:1.0;"/><text fill="#000000" font-family="sans-serif" font-size="14" lengthAdjust="spacing" textLength="221" x="1017" y="254.292">jButton1ActionPerformed(): void</text></g><!--MD5=[786136dfcb01a7dbbad5fb9e5277cdd2]
class TelaVerJogos--><g id="elem_TelaVerJogos"><rect codeLine="55" fill="#F1F1F1" height="80.5938" id="TelaVerJogos" rx="2.5" ry="2.5" style="stroke:#181818;stroke-width:0.5;" width="179" x="1753" y="7"/><ellipse cx="1793.65" cy="23" fill="#ADD1B2" rx="11" ry="11" style="stroke:#181818;stroke-width:1.0;"/><path d="M1796.6188,28.6406 Q1796.0406,28.9375 1795.4,29.0781 Q1794.7594,29.2344 1794.0563,29.2344 Q1791.5563,29.2344 1790.2281,27.5938 Q1788.9156,25.9375 1788.9156,22.8125 Q1788.9156,19.6875 1790.2281,18.0313 Q1791.5563,16.375 1794.0563,16.375 Q1794.7594,16.375 1795.4,16.5313 Q1796.0563,16.6875 1796.6188,16.9844 L1796.6188,19.7031 Q1795.9938,19.125 1795.4,18.8594 Q1794.8063,18.5781 1794.1813,18.5781 Q1792.8375,18.5781 1792.15,19.6563 Q1791.4625,20.7188 1791.4625,22.8125 Q1791.4625,24.9063 1792.15,25.9844 Q1792.8375,27.0469 1794.1813,27.0469 Q1794.8063,27.0469 1795.4,26.7813 Q1795.9938,26.5 1796.6188,25.9219 L1796.6188,28.6406 Z " fill="#000000"/><text fill="#000000" font-family="sans-serif" font-size="14" lengthAdjust="spacing" textLength="90" x="1813.35" y="27.8467">TelaVerJogos</text><line style="stroke:#181818;stroke-width:0.5;" x1="1754" x2="1931" y1="39" y2="39"/><rect fill="none" height="6" style="stroke:#C82930;stroke-width:1.0;" width="6" x="1761" y="49.6484"/><text fill="#000000" font-family="sans-serif" font-size="14" lengthAdjust="spacing" textLength="153" x="1773" y="55.9951">user: UsuarioConexao</text><line style="stroke:#181818;stroke-width:0.5;" x1="1754" x2="1931" y1="63.2969" y2="63.2969"/><ellipse cx="1764" cy="76.9453" fill="#84BE84" rx="3" ry="3" style="stroke:#038048;stroke-width:1.0;"/><text fill="#000000" font-family="sans-serif" font-size="14" lengthAdjust="spacing" textLength="150" x="1773" y="80.292">atualizarTabela(): void</text></g><!--MD5=[5a4813702194dede6dfbe0dec08be397]
class TelaEditarRegistro--><g id="elem_TelaEditarRegistro"><rect codeLine="60" fill="#F1F1F1" height="80.5938" id="TelaEditarRegistro" rx="2.5" ry="2.5" style="stroke:#181818;stroke-width:0.5;" width="256" x="1967.5" y="7"/><ellipse cx="2028.25" cy="23" fill="#ADD1B2" rx="11" ry="11" style="stroke:#181818;stroke-width:1.0;"/><path d="M2031.2188,28.6406 Q2030.6406,28.9375 2030,29.0781 Q2029.3594,29.2344 2028.6563,29.2344 Q2026.1563,29.2344 2024.8281,27.5938 Q2023.5156,25.9375 2023.5156,22.8125 Q2023.5156,19.6875 2024.8281,18.0313 Q2026.1563,16.375 2028.6563,16.375 Q2029.3594,16.375 2030,16.5313 Q2030.6563,16.6875 2031.2188,16.9844 L2031.2188,19.7031 Q2030.5938,19.125 2030,18.8594 Q2029.4063,18.5781 2028.7813,18.5781 Q2027.4375,18.5781 2026.75,19.6563 Q2026.0625,20.7188 2026.0625,22.8125 Q2026.0625,24.9063 2026.75,25.9844 Q2027.4375,27.0469 2028.7813,27.0469 Q2029.4063,27.0469 2030,26.7813 Q2030.5938,26.5 2031.2188,25.9219 L2031.2188,28.6406 Z " fill="#000000"/><text fill="#000000" font-family="sans-serif" font-size="14" lengthAdjust="spacing" textLength="126" x="2048.75" y="27.8467">TelaEditarRegistro</text><line style="stroke:#181818;stroke-width:0.5;" x1="1968.5" x2="2222.5" y1="39" y2="39"/><rect fill="none" height="6" style="stroke:#C82930;stroke-width:1.0;" width="6" x="1975.5" y="49.6484"/><text fill="#000000" font-family="sans-serif" font-size="14" lengthAdjust="spacing" textLength="153" x="1987.5" y="55.9951">user: UsuarioConexao</text><line style="stroke:#181818;stroke-width:0.5;" x1="1968.5" x2="2222.5" y1="63.2969" y2="63.2969"/><ellipse cx="1978.5" cy="76.9453" fill="#84BE84" rx="3" ry="3" style="stroke:#038048;stroke-width:1.0;"/><text fill="#000000" font-family="sans-serif" font-size="14" lengthAdjust="spacing" textLength="230" x="1987.5" y="80.292">atualizarRegistro(idJogo: int): void</text></g><!--MD5=[d804ef1ea706e43f12afc39b9e065ace]
class TelaAddJogo--><g id="elem_TelaAddJogo"><rect codeLine="65" fill="#F1F1F1" height="96.8906" id="TelaAddJogo" rx="2.5" ry="2.5" style="stroke:#181818;stroke-width:0.5;" width="467" x="1279" y="173"/><ellipse cx="1465.25" cy="189" fill="#ADD1B2" rx="11" ry="11" style="stroke:#181818;stroke-width:1.0;"/><path d="M1468.2188,194.6406 Q1467.6406,194.9375 1467,195.0781 Q1466.3594,195.2344 1465.6563,195.2344 Q1463.1563,195.2344 1461.8281,193.5938 Q1460.5156,191.9375 1460.5156,188.8125 Q1460.5156,185.6875 1461.8281,184.0313 Q1463.1563,182.375 1465.6563,182.375 Q1466.3594,182.375 1467,182.5313 Q1467.6563,182.6875 1468.2188,182.9844 L1468.2188,185.7031 Q1467.5938,185.125 1467,184.8594 Q1466.4063,184.5781 1465.7813,184.5781 Q1464.4375,184.5781 1463.75,185.6563 Q1463.0625,186.7188 1463.0625,188.8125 Q1463.0625,190.9063 1463.75,191.9844 Q1464.4375,193.0469 1465.7813,193.0469 Q1466.4063,193.0469 1467,192.7813 Q1467.5938,192.5 1468.2188,191.9219 L1468.2188,194.6406 Z " fill="#000000"/><text fill="#000000" font-family="sans-serif" font-size="14" lengthAdjust="spacing" textLength="86" x="1485.75" y="193.8467">TelaAddJogo</text><line style="stroke:#181818;stroke-width:0.5;" x1="1280" x2="1745" y1="205" y2="205"/><text fill="#000000" font-family="sans-serif" font-size="14" lengthAdjust="spacing" textLength="441" x="1299" y="221.9951">«Cláusula» "Usuário deve ter nível de acesso ADM ou Operador"</text><rect fill="none" height="6" style="stroke:#C82930;stroke-width:1.0;" width="6" x="1287" y="231.9453"/><text fill="#000000" font-family="sans-serif" font-size="14" lengthAdjust="spacing" textLength="153" x="1299" y="238.292">user: UsuarioConexao</text><line style="stroke:#181818;stroke-width:0.5;" x1="1280" x2="1745" y1="245.5938" y2="245.5938"/><ellipse cx="1290" cy="259.2422" fill="#84BE84" rx="3" ry="3" style="stroke:#038048;stroke-width:1.0;"/><text fill="#000000" font-family="sans-serif" font-size="14" lengthAdjust="spacing" textLength="242" x="1299" y="262.5889">botaoSalvarActionPerformed(): void</text></g><!--MD5=[bc72ed22497ae220bdf78dd1325c79b8]
class Jogos--><g id="elem_Jogos"><rect codeLine="81" fill="#F1F1F1" height="113.1875" id="Jogos" rx="2.5" ry="2.5" style="stroke:#181818;stroke-width:0.5;" width="190" x="665.5" y="741"/><ellipse cx="737.25" cy="757" fill="#ADD1B2" rx="11" ry="11" style="stroke:#181818;stroke-width:1.0;"/><path d="M740.2188,762.6406 Q739.6406,762.9375 739,763.0781 Q738.3594,763.2344 737.6563,763.2344 Q735.1563,763.2344 733.8281,761.5938 Q732.5156,759.9375 732.5156,756.8125 Q732.5156,753.6875 733.8281,752.0313 Q735.1563,750.375 737.6563,750.375 Q738.3594,750.375 739,750.5313 Q739.6563,750.6875 740.2188,750.9844 L740.2188,753.7031 Q739.5938,753.125 739,752.8594 Q738.4063,752.5781 737.7813,752.5781 Q736.4375,752.5781 735.75,753.6563 Q735.0625,754.7188 735.0625,756.8125 Q735.0625,758.9063 735.75,759.9844 Q736.4375,761.0469 737.7813,761.0469 Q738.4063,761.0469 739,760.7813 Q739.5938,760.5 740.2188,759.9219 L740.2188,762.6406 Z " fill="#000000"/><text fill="#000000" font-family="sans-serif" font-size="14" lengthAdjust="spacing" textLength="38" x="757.75" y="761.8467">jogos</text><line style="stroke:#181818;stroke-width:0.5;" x1="666.5" x2="854.5" y1="773" y2="773"/><ellipse cx="676.5" cy="786.6484" fill="none" rx="3" ry="3" style="stroke:#038048;stroke-width:1.0;"/><text fill="#000000" font-family="sans-serif" font-size="14" lengthAdjust="spacing" textLength="38" x="685.5" y="789.9951">id: int</text><ellipse cx="676.5" cy="802.9453" fill="none" rx="3" ry="3" style="stroke:#038048;stroke-width:1.0;"/><text fill="#000000" font-family="sans-serif" font-size="14" lengthAdjust="spacing" textLength="79" x="685.5" y="806.292">jogo: String</text><ellipse cx="676.5" cy="819.2422" fill="none" rx="3" ry="3" style="stroke:#038048;stroke-width:1.0;"/><text fill="#000000" font-family="sans-serif" font-size="14" lengthAdjust="spacing" textLength="99" x="685.5" y="822.5889">genero: String</text><ellipse cx="676.5" cy="835.5391" fill="none" rx="3" ry="3" style="stroke:#038048;stroke-width:1.0;"/><text fill="#000000" font-family="sans-serif" font-size="14" lengthAdjust="spacing" textLength="164" x="685.5" y="838.8857">dataLancamento: String</text><line style="stroke:#181818;stroke-width:0.5;" x1="666.5" x2="854.5" y1="846.1875" y2="846.1875"/></g><!--MD5=[fa46c53ff71d810dd3f76aec6a8bdda2]
class Usuarios--><g id="elem_Usuarios"><rect codeLine="88" fill="#F1F1F1" height="113.1875" id="Usuarios" rx="2.5" ry="2.5" style="stroke:#181818;stroke-width:0.5;" width="139" x="891" y="741"/><ellipse cx="927.6" cy="757" fill="#ADD1B2" rx="11" ry="11" style="stroke:#181818;stroke-width:1.0;"/><path d="M930.5688,762.6406 Q929.9906,762.9375 929.35,763.0781 Q928.7094,763.2344 928.0063,763.2344 Q925.5063,763.2344 924.1781,761.5938 Q922.8656,759.9375 922.8656,756.8125 Q922.8656,753.6875 924.1781,752.0313 Q925.5063,750.375 928.0063,750.375 Q928.7094,750.375 929.35,750.5313 Q930.0063,750.6875 930.5688,750.9844 L930.5688,753.7031 Q929.9438,753.125 929.35,752.8594 Q928.7563,752.5781 928.1313,752.5781 Q926.7875,752.5781 926.1,753.6563 Q925.4125,754.7188 925.4125,756.8125 Q925.4125,758.9063 926.1,759.9844 Q926.7875,761.0469 928.1313,761.0469 Q928.7563,761.0469 929.35,760.7813 Q929.9438,760.5 930.5688,759.9219 L930.5688,762.6406 Z " fill="#000000"/><text fill="#000000" font-family="sans-serif" font-size="14" lengthAdjust="spacing" textLength="59" x="946.4" y="761.8467">usuarios</text><line style="stroke:#181818;stroke-width:0.5;" x1="892" x2="1029" y1="773" y2="773"/><ellipse cx="902" cy="786.6484" fill="none" rx="3" ry="3" style="stroke:#038048;stroke-width:1.0;"/><text fill="#000000" font-family="sans-serif" font-size="14" lengthAdjust="spacing" textLength="38" x="911" y="789.9951">id: int</text><ellipse cx="902" cy="802.9453" fill="none" rx="3" ry="3" style="stroke:#038048;stroke-width:1.0;"/><text fill="#000000" font-family="sans-serif" font-size="14" lengthAdjust="spacing" textLength="89" x="911" y="806.292">nome: String</text><ellipse cx="902" cy="819.2422" fill="none" rx="3" ry="3" style="stroke:#038048;stroke-width:1.0;"/><text fill="#000000" font-family="sans-serif" font-size="14" lengthAdjust="spacing" textLength="92" x="911" y="822.5889">senha: String</text><ellipse cx="902" cy="835.5391" fill="none" rx="3" ry="3" style="stroke:#038048;stroke-width:1.0;"/><text fill="#000000" font-family="sans-serif" font-size="14" lengthAdjust="spacing" textLength="113" x="911" y="838.8857">tipo_user: String</text><line style="stroke:#181818;stroke-width:0.5;" x1="892" x2="1029" y1="846.1875" y2="846.1875"/></g><!--MD5=[65d7d07c754edb63667f100c2c853226]
class JogosJogados--><g id="elem_JogosJogados"><rect codeLine="95" fill="#F1F1F1" height="113.1875" id="JogosJogados" rx="2.5" ry="2.5" style="stroke:#181818;stroke-width:0.5;" width="158" x="1065.5" y="741"/><ellipse cx="1092.2" cy="757" fill="#ADD1B2" rx="11" ry="11" style="stroke:#181818;stroke-width:1.0;"/><path d="M1095.1688,762.6406 Q1094.5906,762.9375 1093.95,763.0781 Q1093.3094,763.2344 1092.6063,763.2344 Q1090.1063,763.2344 1088.7781,761.5938 Q1087.4656,759.9375 1087.4656,756.8125 Q1087.4656,753.6875 1088.7781,752.0313 Q1090.1063,750.375 1092.6063,750.375 Q1093.3094,750.375 1093.95,750.5313 Q1094.6063,750.6875 1095.1688,750.9844 L1095.1688,753.7031 Q1094.5438,753.125 1093.95,752.8594 Q1093.3563,752.5781 1092.7313,752.5781 Q1091.3875,752.5781 1090.7,753.6563 Q1090.0125,754.7188 1090.0125,756.8125 Q1090.0125,758.9063 1090.7,759.9844 Q1091.3875,761.0469 1092.7313,761.0469 Q1093.3563,761.0469 1093.95,760.7813 Q1094.5438,760.5 1095.1688,759.9219 L1095.1688,762.6406 Z " fill="#000000"/><text fill="#000000" font-family="sans-serif" font-size="14" lengthAdjust="spacing" textLength="100" x="1108.8" y="761.8467">jogos_jogados</text><line style="stroke:#181818;stroke-width:0.5;" x1="1066.5" x2="1222.5" y1="773" y2="773"/><ellipse cx="1076.5" cy="786.6484" fill="none" rx="3" ry="3" style="stroke:#038048;stroke-width:1.0;"/><text fill="#000000" font-family="sans-serif" font-size="14" lengthAdjust="spacing" textLength="96" x="1085.5" y="789.9951">id_usuario: int</text><ellipse cx="1076.5" cy="802.9453" fill="none" rx="3" ry="3" style="stroke:#038048;stroke-width:1.0;"/><text fill="#000000" font-family="sans-serif" font-size="14" lengthAdjust="spacing" textLength="75" x="1085.5" y="806.292">id_jogo: int</text><ellipse cx="1076.5" cy="819.2422" fill="none" rx="3" ry="3" style="stroke:#038048;stroke-width:1.0;"/><text fill="#000000" font-family="sans-serif" font-size="14" lengthAdjust="spacing" textLength="92" x="1085.5" y="822.5889">status: String</text><ellipse cx="1076.5" cy="835.5391" fill="none" rx="3" ry="3" style="stroke:#038048;stroke-width:1.0;"/><text fill="#000000" font-family="sans-serif" font-size="14" lengthAdjust="spacing" textLength="132" x="1085.5" y="838.8857">data_jogada: String</text><line style="stroke:#181818;stroke-width:0.5;" x1="1066.5" x2="1222.5" y1="846.1875" y2="846.1875"/></g><!--MD5=[3c99177c36af8ab67b46498c76af661a]
link Conector to UsuarioConexao--><g id="link_Conector_UsuarioConexao"><path codeLine="29" d="M1780.97,275.71 C1643.02,314.85 1451.95,369.06 1288.9,415.32 " fill="none" id="Conector-to-UsuarioConexao" style="stroke:#181818;stroke-width:1.0;"/><polygon fill="#181818" points="1284.09,416.69,1293.8415,418.0713,1288.8987,415.3202,1291.6498,410.3773,1284.09,416.69" style="stroke:#181818;stroke-width:1.0;"/><text fill="#000000" font-family="sans-serif" font-size="13" lengthAdjust="spacing" textLength="116" x="1643.5" y="321.0669">Usa para conexão</text><text fill="#000000" font-family="sans-serif" font-size="13" lengthAdjust="spacing" textLength="8" x="1764.8898" y="274.7463">1</text><text fill="#000000" font-family="sans-serif" font-size="13" lengthAdjust="spacing" textLength="8" x="1291.7679" y="411.4104">1</text></g><!--MD5=[0403251612de0125542a9df7441553b2]
link TelaInicial to UsuarioConexao--><g id="link_TelaInicial_UsuarioConexao"><path codeLine="72" d="M271.22,270.03 C278.75,272.74 286.22,275.41 293.5,278 C403.56,317.11 524.14,359.05 632.15,396.3 " fill="none" id="TelaInicial-to-UsuarioConexao" style="stroke:#181818;stroke-width:1.0;"/><polygon fill="#181818" points="636.96,397.96,629.7531,391.2473,632.2325,396.3318,627.148,398.8112,636.96,397.96" style="stroke:#181818;stroke-width:1.0;"/><text fill="#000000" font-family="sans-serif" font-size="13" lengthAdjust="spacing" textLength="92" x="422.5" y="321.0669">Usa para login</text></g><!--MD5=[fd03bc0410da63bd63d6c77538b948e9]
link TelaCadastro to UsuarioConexao--><g id="link_TelaCadastro_UsuarioConexao"><path codeLine="73" d="M541.96,270.05 C582.5,293.15 633.77,322.36 686.41,352.35 " fill="none" id="TelaCadastro-to-UsuarioConexao" style="stroke:#181818;stroke-width:1.0;"/><polygon fill="#181818" points="690.85,354.88,685.026,346.9377,686.5105,352.3962,681.052,353.8808,690.85,354.88" style="stroke:#181818;stroke-width:1.0;"/><text fill="#000000" font-family="sans-serif" font-size="13" lengthAdjust="spacing" textLength="118" x="636.5" y="321.0669">Usa para cadastro</text></g><!--MD5=[1aaa45beadf422f3ef0f672c54094e41]
link Telaopcoes to UsuarioConexao--><g id="link_Telaopcoes_UsuarioConexao"><path codeLine="74" d="M827.93,270.05 C840.47,292.59 856.23,320.95 872.48,350.18 " fill="none" id="Telaopcoes-to-UsuarioConexao" style="stroke:#181818;stroke-width:1.0;"/><polygon fill="#181818" points="875.09,354.88,874.2158,345.07,872.6618,350.5092,867.2226,348.9552,875.09,354.88" style="stroke:#181818;stroke-width:1.0;"/><text fill="#000000" font-family="sans-serif" font-size="13" lengthAdjust="spacing" textLength="102" x="858.5" y="321.0669">Contém usuário</text></g><!--MD5=[b6b43cd270cb0f444d9b02123710ae48]
link TelaRegistroJogo to UsuarioConexao--><g id="link_TelaRegistroJogo_UsuarioConexao"><path codeLine="75" d="M1098.25,262.27 C1085.02,285.92 1067.28,317.63 1048.94,350.42 " fill="none" id="TelaRegistroJogo-to-UsuarioConexao" style="stroke:#181818;stroke-width:1.0;"/><polygon fill="#181818" points="1046.46,354.84,1054.3504,348.9458,1048.9052,350.4787,1047.3723,345.0335,1046.46,354.84" style="stroke:#181818;stroke-width:1.0;"/><text fill="#000000" font-family="sans-serif" font-size="13" lengthAdjust="spacing" textLength="154" x="1070.5" y="321.0669">Usa para registrar jogos</text></g><!--MD5=[95d714bcf0f0ee2874c450088a9a1800]
link TelaVerJogos to Conector--><g id="link_TelaVerJogos_Conector"><path codeLine="76" d="M1871.72,88.39 C1887.46,109.88 1907.19,136.81 1924.72,160.74 " fill="none" id="TelaVerJogos-to-Conector" style="stroke:#181818;stroke-width:1.0;"/><polygon fill="#181818" points="1927.74,164.86,1925.6389,155.2379,1924.7813,160.8293,1919.1899,159.9718,1927.74,164.86" style="stroke:#181818;stroke-width:1.0;"/><text fill="#000000" font-family="sans-serif" font-size="13" lengthAdjust="spacing" textLength="116" x="1906.5" y="131.0669">Usa para consulta</text></g><!--MD5=[067ded55410bee7a58ab89905124ac7d]
link TelaEditarRegistro to Conector--><g id="link_TelaEditarRegistro_Conector"><path codeLine="77" d="M2066.04,88.39 C2050.18,109.88 2030.3,136.81 2012.62,160.74 " fill="none" id="TelaEditarRegistro-to-Conector" style="stroke:#181818;stroke-width:1.0;"/><polygon fill="#181818" points="2009.58,164.86,2018.1414,159.9914,2012.5479,160.8362,2011.7032,155.2427,2009.58,164.86" style="stroke:#181818;stroke-width:1.0;"/><text fill="#000000" font-family="sans-serif" font-size="13" lengthAdjust="spacing" textLength="117" x="2043.5" y="131.0669">Usa para atualizar</text></g><!--MD5=[347789371ebd83f15c79da4c15ae5fe4]
link TelaAddJogo to UsuarioConexao--><g id="link_TelaAddJogo_UsuarioConexao"><path codeLine="78" d="M1420.73,270.05 C1376.06,293.19 1319.54,322.47 1261.54,352.53 " fill="none" id="TelaAddJogo-to-UsuarioConexao" style="stroke:#181818;stroke-width:1.0;"/><polygon fill="#181818" points="1257,354.88,1266.8314,354.2946,1261.4403,352.5813,1263.1536,347.1902,1257,354.88" style="stroke:#181818;stroke-width:1.0;"/><text fill="#000000" font-family="sans-serif" font-size="13" lengthAdjust="spacing" textLength="158" x="1335.5" y="321.0669">Usa para adicionar jogos</text></g><!--MD5=[bcd9b5b074d5a049bb41a9b6cff219f1]
link UsuarioConexao to Usuarios--><g id="link_UsuarioConexao_Usuarios"><path codeLine="103" d="M960.5,664.38 C960.5,689.72 960.5,714.6 960.5,735.81 " fill="none" id="UsuarioConexao-to-Usuarios" style="stroke:#181818;stroke-width:1.0;"/><polygon fill="#181818" points="960.5,740.84,964.5,731.84,960.5,735.84,956.5,731.84,960.5,740.84" style="stroke:#181818;stroke-width:1.0;"/><text fill="#000000" font-family="sans-serif" font-size="13" lengthAdjust="spacing" textLength="57" x="961.5" y="707.0669">Manipula</text></g><!--MD5=[b2a92f9cd97726d58394d1b284c6e1b3]
link UsuarioConexao to Jogos--><g id="link_UsuarioConexao_Jogos"><path codeLine="104" d="M852.89,664.38 C834.95,690.04 817.33,715.23 802.38,736.62 " fill="none" id="UsuarioConexao-to-Jogos" style="stroke:#181818;stroke-width:1.0;"/><polygon fill="#181818" points="799.42,740.84,807.8593,735.7627,802.2883,736.7445,801.3065,731.1735,799.42,740.84" style="stroke:#181818;stroke-width:1.0;"/><text fill="#000000" font-family="sans-serif" font-size="13" lengthAdjust="spacing" textLength="57" x="832.5" y="707.0669">Manipula</text></g><!--MD5=[1f8dcf6cb19f9ef78975a77e5dd04e1f]
link UsuarioConexao to JogosJogados--><g id="link_UsuarioConexao_JogosJogados"><path codeLine="105" d="M1059.5,664.38 C1076.01,690.04 1092.21,715.23 1105.97,736.62 " fill="none" id="UsuarioConexao-to-JogosJogados" style="stroke:#181818;stroke-width:1.0;"/><polygon fill="#181818" points="1108.69,740.84,1107.1645,731.11,1105.9761,736.6406,1100.4455,735.4522,1108.69,740.84" style="stroke:#181818;stroke-width:1.0;"/><text fill="#000000" font-family="sans-serif" font-size="13" lengthAdjust="spacing" textLength="57" x="1086.5" y="707.0669">Manipula</text></g><!--MD5=[61d3170760d1e97e4958bc54b9a42165]
@startuml
' Classes DAO
class Conector {
  - conn: Connection
  + conectar(): boolean
  + prepareStatement(sql: String): PreparedStatement
  + fecharConexao(): void
}

class UsuarioConexao {
  - nome: String
  - senhaUser: String
  - tipo_user: String
  - id: int
  + getNome(): String
  + setNome(nome: String): void
  + getSenhaUser(): String
  + setSenhaUser(senhaUser: String): void
  + getTipo_user(): String
  + setTipo_user(tipo_user: String): void
  + getId(): int
  + setId(id: int): void
  + conectarUsuario(nome: String, senha: String): UsuarioConexao
  + cadastrarUsuario(nome: String, senha: String): UsuarioConexao
  + registrarJogo(nomeJogo: String, status: String, data: String, usuario: UsuarioConexao): void
  + adicionarJogo(jogo: String, genero: String, dataLancamento: String): void
}

' Relações
Conector "1" - -> "1" UsuarioConexao : Usa para conexão

' Telas (simplificado)
class TelaInicial {
  - TextFieldUsuario: JTextField
  - TextFieldSenha: JTextField
  + botaoEntrarActionPerformed(): void
}

class TelaCadastro {
  - TextFieldUsuario: JTextField
  - TextFieldSenha: JTextField
  + botaoCadastrarActionPerformed(): void
}

class Telaopcoes {
  - user: UsuarioConexao
  + botaoRegistrarJogoActionPerformed(): void
  + botaoAdicionarJogoActionPerformed(): void
}

class TelaRegistroJogo {
  - user: UsuarioConexao
  + jButton1ActionPerformed(): void
}

class TelaVerJogos {
  - user: UsuarioConexao
  + atualizarTabela(): void
}

class TelaEditarRegistro {
  - user: UsuarioConexao
  + atualizarRegistro(idJogo: int): void
}

class TelaAddJogo {
<<Cláusula>> "Usuário deve ter nível de acesso ADM ou Operador"
  - user: UsuarioConexao
  + botaoSalvarActionPerformed(): void
}

' Relações Telas e DAO
TelaInicial - -> UsuarioConexao : Usa para login
TelaCadastro - -> UsuarioConexao : Usa para cadastro
Telaopcoes - -> UsuarioConexao : Contém usuário
TelaRegistroJogo - -> UsuarioConexao : Usa para registrar jogos
TelaVerJogos - -> Conector : Usa para consulta
TelaEditarRegistro - -> Conector : Usa para atualizar
TelaAddJogo - -> UsuarioConexao : Usa para adicionar jogos

' Banco de Dados (entidades implícitas)
class "jogos" as Jogos {
  + id: int
  + jogo: String
  + genero: String
  + dataLancamento: String
}

class "usuarios" as Usuarios {
  + id: int
  + nome: String
  + senha: String
  + tipo_user: String
}

class "jogos_jogados" as JogosJogados {
  + id_usuario: int
  + id_jogo: int
  + status: String
  + data_jogada: String
}

' Relações com o banco
UsuarioConexao - -> Usuarios : Manipula
UsuarioConexao - -> Jogos : Manipula
UsuarioConexao - -> JogosJogados : Manipula
@enduml

@startuml
class Conector {
  - conn: Connection
  + conectar(): boolean
  + prepareStatement(sql: String): PreparedStatement
  + fecharConexao(): void
}

class UsuarioConexao {
  - nome: String
  - senhaUser: String
  - tipo_user: String
  - id: int
  + getNome(): String
  + setNome(nome: String): void
  + getSenhaUser(): String
  + setSenhaUser(senhaUser: String): void
  + getTipo_user(): String
  + setTipo_user(tipo_user: String): void
  + getId(): int
  + setId(id: int): void
  + conectarUsuario(nome: String, senha: String): UsuarioConexao
  + cadastrarUsuario(nome: String, senha: String): UsuarioConexao
  + registrarJogo(nomeJogo: String, status: String, data: String, usuario: UsuarioConexao): void
  + adicionarJogo(jogo: String, genero: String, dataLancamento: String): void
}

Conector "1" - -> "1" UsuarioConexao : Usa para conexão

class TelaInicial {
  - TextFieldUsuario: JTextField
  - TextFieldSenha: JTextField
  + botaoEntrarActionPerformed(): void
}

class TelaCadastro {
  - TextFieldUsuario: JTextField
  - TextFieldSenha: JTextField
  + botaoCadastrarActionPerformed(): void
}

class Telaopcoes {
  - user: UsuarioConexao
  + botaoRegistrarJogoActionPerformed(): void
  + botaoAdicionarJogoActionPerformed(): void
}

class TelaRegistroJogo {
  - user: UsuarioConexao
  + jButton1ActionPerformed(): void
}

class TelaVerJogos {
  - user: UsuarioConexao
  + atualizarTabela(): void
}

class TelaEditarRegistro {
  - user: UsuarioConexao
  + atualizarRegistro(idJogo: int): void
}

class TelaAddJogo {
<<Cláusula>> "Usuário deve ter nível de acesso ADM ou Operador"
  - user: UsuarioConexao
  + botaoSalvarActionPerformed(): void
}

TelaInicial - -> UsuarioConexao : Usa para login
TelaCadastro - -> UsuarioConexao : Usa para cadastro
Telaopcoes - -> UsuarioConexao : Contém usuário
TelaRegistroJogo - -> UsuarioConexao : Usa para registrar jogos
TelaVerJogos - -> Conector : Usa para consulta
TelaEditarRegistro - -> Conector : Usa para atualizar
TelaAddJogo - -> UsuarioConexao : Usa para adicionar jogos

class "jogos" as Jogos {
  + id: int
  + jogo: String
  + genero: String
  + dataLancamento: String
}

class "usuarios" as Usuarios {
  + id: int
  + nome: String
  + senha: String
  + tipo_user: String
}

class "jogos_jogados" as JogosJogados {
  + id_usuario: int
  + id_jogo: int
  + status: String
  + data_jogada: String
}

UsuarioConexao - -> Usuarios : Manipula
UsuarioConexao - -> Jogos : Manipula
UsuarioConexao - -> JogosJogados : Manipula
@enduml

PlantUML version 1.2022.7(Mon Aug 22 17:01:30 UTC 2022)
(GPL source distribution)
Java Runtime: OpenJDK Runtime Environment
JVM: OpenJDK 64-Bit Server VM
Default Encoding: UTF-8
Language: en
Country: null
--></g></svg>